<svg xmlns="http://www.w3.org/2000/svg" xmlns:xlink="http://www.w3.org/1999/xlink" xmlns:serif="http://www.serif.com/" viewBox="0 0 32 40" version="1.1" xml:space="preserve" style="" x="0px" y="0px" fill-rule="evenodd" clip-rule="evenodd" stroke-linejoin="round" stroke-miterlimit="2"><g transform="matrix(1,0,0,1,-432,-144)"><path d="M437,159.821L437,168C437,168.796 437.316,169.559 437.879,170.121C438.441,170.684 439.204,171 440,171L456,171C456.796,171 457.559,170.684 458.121,170.121C458.684,169.559 459,168.796 459,168L459,159.316L460.267,160.68C460.643,161.085 461.276,161.108 461.68,160.733C462.085,160.357 462.108,159.724 461.733,159.32C461.733,159.32 453.644,150.608 450.227,146.929C449.653,146.31 448.844,145.962 448,145.971C447.155,145.979 446.354,146.343 445.791,146.972C442.491,150.668 434.754,159.334 434.754,159.334C434.386,159.746 434.422,160.378 434.834,160.746C435.246,161.114 435.878,161.078 436.246,160.666L437,159.821ZM457,157.162L448.762,148.29C448.57,148.084 448.301,147.968 448.019,147.971C447.738,147.973 447.471,148.094 447.283,148.304L439,157.581L439,168C439,168.265 439.105,168.52 439.293,168.707C439.48,168.895 439.735,169 440,169L444,169L444,164C444,162.343 445.343,161 447,161L449,161C450.657,161 452,162.343 452,164L452,169L456,169C456.265,169 456.52,168.895 456.707,168.707C456.895,168.52 457,168.265 457,168L457,157.162ZM450,169L450,164C450,163.448 449.552,163 449,163C449,163 447,163 447,163C446.448,163 446,163.448 446,164L446,169L450,169Z"/></g><text x="0" y="47" fill="#000000" font-size="5px" font-weight="bold" font-family="'Helvetica Neue', Helvetica, Arial-Unicode, Arial, Sans-serif">Created by Ibu Halwa</text><text x="0" y="52" fill="#000000" font-size="5px" font-weight="bold" font-family="'Helvetica Neue', Helvetica, Arial-Unicode, Arial, Sans-serif">from the Noun Project</text></svg>